<svg version="1.1" id="Layer_1" xmlns="http://www.w3.org/2000/svg" xmlns:xlink="http://www.w3.org/1999/xlink" x="0px" y="0px"
	 width="100%" viewBox="0 0 528 528" enable-background="new 0 0 528 528" xml:space="preserve">
<path fill="#000000" opacity="1.000000" stroke="none" 
	d="
M120.714233,64.676590 
	C153.158875,40.521652 189.235733,25.352772 228.628860,19.146582 
	C301.205170,7.712549 367.685547,23.070505 426.438568,67.977478 
	C472.825958,103.432983 503.739227,149.788284 517.456787,206.407715 
	C537.571777,289.432129 520.955994,365.367920 466.735291,431.529083 
	C425.489044,481.858582 371.539032,511.703949 306.792938,520.294495 
	C242.954865,528.764465 183.371628,516.068420 129.767731,479.816162 
	C72.303162,440.952972 36.454742,387.148346 22.644238,319.045258 
	C8.862278,251.082916 21.795362,187.998672 58.874088,129.810379 
	C75.136978,104.288750 95.890923,82.717415 120.714233,64.676590 
M452.931854,408.447845 
	C528.765564,310.469147 510.892426,167.373383 414.933624,91.201729 
	C311.041168,8.732381 169.047836,31.023884 92.839958,126.547546 
	C13.290525,226.259705 30.114403,373.820465 134.173904,451.964325 
	C235.599457,528.130249 376.195557,507.159943 452.931854,408.447845 
z"/>
<path fill="#000000" opacity="1.000000" stroke="none" 
	d="
M312.048218,124.078308 
	C310.262634,123.449677 308.886230,122.705849 307.431000,122.487480 
	C297.535675,121.002693 293.297699,114.510307 290.343323,105.524086 
	C285.356506,90.355682 288.704559,93.717125 273.393494,93.304031 
	C270.063019,93.214180 266.710114,93.512154 263.399780,93.239510 
	C259.639954,92.929840 257.492859,94.351929 256.318817,97.934380 
	C255.024139,101.884842 252.901321,105.607040 251.962769,109.621231 
	C250.462631,116.037148 246.737579,119.492577 240.479263,121.217964 
	C234.718857,122.806099 229.122726,125.065895 223.578369,127.333366 
	C220.248535,128.695160 217.492065,128.240982 214.704178,126.198288 
	C209.731735,122.554970 204.637985,119.075188 199.713089,115.370003 
	C197.699371,113.855011 196.048355,113.710991 193.856842,115.051643 
	C187.747711,118.788925 181.530807,122.351997 175.318008,125.916862 
	C172.826218,127.346649 171.909912,129.308746 172.378235,132.156464 
	C173.188126,137.081024 173.466949,142.119812 174.625061,146.953384 
	C176.056183,152.926392 174.789658,157.553345 170.192963,161.741028 
	C166.269104,165.315750 162.731262,169.370438 159.383636,173.505081 
	C156.235901,177.392838 152.536118,178.889206 147.601624,178.289978 
	C142.154358,177.628479 136.640152,177.525955 131.187164,176.900406 
	C128.458954,176.587418 126.678123,177.402985 125.472923,179.777725 
	C122.156738,186.311996 118.907433,192.882233 115.463753,199.348816 
	C114.087662,201.932892 114.344559,203.980484 116.211922,206.155289 
	C119.575928,210.073135 122.618225,214.280853 126.135071,218.050095 
	C129.971634,222.161987 131.034622,226.543442 128.933746,231.763000 
	C128.315002,233.300217 127.962105,234.947006 127.521278,236.552872 
	C124.963669,245.869949 124.800262,245.885986 115.287979,245.295639 
	C111.996780,245.091385 111.226952,243.666931 111.995445,240.800491 
	C112.038574,240.639603 112.042206,240.458725 112.119942,240.317902 
	C117.649826,230.300156 112.844589,223.178543 106.200249,215.751007 
	C96.031532,204.383621 96.394844,204.087311 103.669006,190.464584 
	C107.435806,183.410278 111.171806,176.338318 114.816826,169.220627 
	C117.201347,164.564316 120.799530,162.276627 126.091972,162.644882 
	C131.903732,163.049316 137.732147,163.232513 143.537155,163.708954 
	C147.141693,164.004761 149.612000,162.542496 152.407990,160.292191 
	C159.400070,154.664780 162.116364,148.266525 159.090500,139.465240 
	C157.866104,135.903839 157.910843,131.919983 157.222702,128.156769 
	C156.403763,123.678169 157.942551,120.215492 161.690186,117.877426 
	C171.725754,111.616486 181.825363,105.457512 191.933578,99.314041 
	C195.792664,96.968605 199.505905,97.446144 203.108780,100.102722 
	C207.934998,103.661324 212.881500,107.056976 217.702530,110.622406 
	C220.230392,112.491928 222.645630,112.154930 225.632263,111.618950 
	C235.774918,109.798737 239.866516,102.885918 242.749893,93.960594 
	C248.513657,76.119141 249.823822,79.936249 263.276520,79.676666 
	C271.605591,79.515953 279.945953,79.846313 288.271027,79.604660 
	C293.791077,79.444427 296.997284,81.854156 298.764832,86.906990 
	C300.524048,91.935860 302.729523,96.813316 304.376648,101.875183 
	C305.631775,105.732262 308.262512,107.360039 311.753204,109.138145 
	C319.347321,113.006516 325.747345,112.691940 332.020203,106.690643 
	C334.636200,104.187889 338.041656,102.530205 340.956573,100.315155 
	C344.911530,97.309753 348.788910,97.236992 352.972778,99.861755 
	C362.144257,105.615517 371.372620,111.279274 380.609436,116.927933 
	C385.684998,120.031830 388.216431,123.944962 386.473389,130.256134 
	C385.195892,134.881577 385.208832,139.857697 383.999817,144.509384 
	C382.811829,149.080124 384.192413,152.100433 387.129730,155.669327 
	C392.234436,161.871643 397.638214,163.981400 405.989868,163.329636 
	C427.349823,161.662750 424.595978,161.307846 433.705017,178.441391 
	C437.145752,184.913132 440.527283,191.416321 443.965302,197.889511 
	C446.143860,201.991318 445.944702,205.761597 442.947998,209.483643 
	C438.248230,215.320953 433.614655,221.219360 429.178131,227.257263 
	C427.167664,229.993408 425.157288,229.560226 422.709595,228.269989 
	C417.290558,225.413544 411.839691,222.617477 406.485168,219.840012 
	C404.846405,221.251038 405.295959,222.861847 405.288330,224.274734 
	C405.232605,234.606522 405.403717,244.941956 405.179352,255.269211 
	C405.088562,259.448883 406.608307,260.830933 410.697144,260.689178 
	C417.687714,260.446808 424.699524,260.456146 431.689575,260.711426 
	C435.272339,260.842285 437.338043,259.638672 439.330353,256.572144 
	C445.477966,247.109787 458.247528,244.578156 467.513000,250.574142 
	C476.249359,256.227661 479.067841,268.875305 473.639313,278.065155 
	C466.266083,290.546967 448.725891,291.469116 440.011597,279.453674 
	C437.349365,275.782928 434.571686,274.806396 430.448273,274.949677 
	C423.791077,275.181061 417.114136,275.130341 410.454987,274.911743 
	C406.547241,274.783478 405.181885,276.273010 405.217316,280.161499 
	C405.349457,294.658356 405.007843,309.162689 405.337219,323.652985 
	C405.461365,329.113007 404.080597,333.006348 399.069580,335.438995 
	C396.432404,336.719208 394.700623,339.577576 391.645752,339.976166 
	C390.431915,339.346893 390.244629,338.378540 390.273102,337.345917 
	C391.362061,297.859924 389.840790,258.375397 390.293091,218.895828 
	C390.368317,212.329224 388.407318,208.877945 382.886292,205.680756 
	C360.833588,192.910141 339.057251,179.662399 317.158356,166.625351 
	C316.207092,166.059036 315.293793,165.169296 313.608154,165.517990 
	C313.608154,236.164597 313.608154,306.876129 313.608154,377.639069 
	C315.813324,378.589111 317.085815,376.866974 318.471466,375.922729 
	C330.174591,367.947357 341.799835,359.857666 353.506989,351.888306 
	C355.787720,350.335754 356.848694,348.511200 356.835358,345.689911 
	C356.731171,323.692963 356.693085,301.695343 356.757324,279.698273 
	C356.767273,276.290283 355.569885,274.861908 352.107269,274.945374 
	C346.611908,275.077850 341.108398,274.846436 335.611450,274.944794 
	C331.975220,275.009827 330.350281,273.466736 330.721802,269.832642 
	C330.789246,269.173035 330.730286,268.500488 330.728851,267.833893 
	C330.713348,260.589417 330.713318,260.597443 337.754028,260.607819 
	C347.252869,260.621765 356.755249,260.775757 366.248932,260.557159 
	C370.435120,260.460785 371.895447,262.232239 371.894653,266.133514 
	C371.888580,294.962891 371.928192,323.792267 371.982239,352.621582 
	C371.987701,355.525238 370.909973,357.611633 368.449310,359.306396 
	C346.909576,374.141663 325.715973,389.479858 303.791534,403.755493 
	C302.564941,404.554199 301.465485,405.696442 298.963196,405.608459 
	C298.963196,316.886169 298.963196,228.160309 298.963196,139.516312 
	C301.297729,138.283310 302.618103,139.949448 304.097839,140.848740 
	C342.105591,163.947510 380.054718,187.144135 418.609009,209.328583 
	C420.528412,210.433029 422.760468,212.616074 424.573975,209.551971 
	C426.399017,206.468231 431.402527,204.654922 428.425049,199.441879 
	C424.959198,193.373749 421.870209,187.080048 418.845520,180.774918 
	C417.494629,177.958893 415.641022,176.877838 412.565826,177.043686 
	C406.080688,177.393417 399.573486,177.360733 393.093933,177.775589 
	C390.134155,177.965103 387.940033,177.075943 386.010773,174.962753 
	C380.955658,169.425781 375.894257,163.893265 370.745483,158.443924 
	C368.988861,156.584702 368.339355,154.554001 368.708984,152.074081 
	C369.567474,146.314392 370.037598,140.470520 371.315247,134.807449 
	C372.462402,129.723038 371.066803,126.779839 366.354523,124.470512 
	C360.837097,121.766586 355.637665,118.382217 350.436859,115.078041 
	C348.088196,113.585884 346.254272,113.719002 344.111633,115.357948 
	C340.011871,118.493973 335.549835,121.194298 331.674561,124.575645 
	C327.513428,128.206436 323.419647,129.067200 318.493927,126.466820 
	C316.599731,125.466827 314.452728,124.945602 312.048218,124.078308 
M458.690491,260.566833 
	C455.277893,259.659363 452.459595,260.443115 450.471802,263.500427 
	C448.887573,265.937012 448.692444,268.491821 450.197174,271.001129 
	C451.779938,273.640411 454.197540,275.021423 457.289215,274.613251 
	C460.422119,274.199615 462.270050,272.037689 463.130188,269.176666 
	C464.256195,265.431305 462.516632,262.798004 458.690491,260.566833 
z"/>
<path fill="#000000" opacity="1.000000" stroke="none" 
	d="
M172.403839,409.074280 
	C171.844086,411.977844 173.005798,413.539917 175.101227,414.765961 
	C181.138687,418.298523 187.209518,421.787323 193.090546,425.568146 
	C195.789871,427.303528 197.885941,426.984497 200.321503,425.264160 
	C205.218475,421.805267 210.250305,418.537994 215.180450,415.125153 
	C217.723663,413.364594 220.365326,413.073761 223.243057,414.079926 
	C230.313995,416.552094 237.357010,419.114410 244.489914,421.394348 
	C247.527451,422.365295 249.130066,424.239594 250.160187,427.111572 
	C252.127319,432.595856 254.299011,438.006989 256.401001,443.442596 
	C257.241577,445.616211 257.851776,448.049744 261.071899,447.592438 
	C264.559967,447.097015 263.906036,444.345734 263.911469,442.162903 
	C263.989410,410.838318 264.033020,379.513550 264.030579,348.188843 
	C264.026703,297.701935 263.928314,247.214905 264.048187,196.728333 
	C264.058990,192.169907 262.978119,189.147659 259.136017,186.279999 
	C251.221558,180.372833 249.313202,170.223694 253.677231,161.603897 
	C257.902069,153.259079 267.869965,148.861465 276.947388,151.337677 
	C286.505249,153.944946 292.758881,162.415390 292.151306,172.176086 
	C291.724915,179.025772 288.046448,184.109985 282.511353,187.719040 
	C279.913208,189.413116 279.066589,191.299164 279.068237,194.249557 
	C279.114105,276.728119 279.090363,359.206696 279.111908,441.685272 
	C279.112488,443.899475 278.493927,446.635803 281.834747,447.263275 
	C284.946167,447.847687 285.838776,445.464111 286.763153,443.325104 
	C289.141541,437.821289 291.560547,432.329254 293.715393,426.736969 
	C294.895050,423.675537 296.783142,421.863739 299.925201,420.870209 
	C306.749817,418.712158 313.518707,416.365326 320.247253,413.921844 
	C323.167450,412.861389 325.612396,413.023285 328.186554,414.909515 
	C333.155975,418.550873 338.355560,421.877563 343.336304,425.504242 
	C345.475128,427.061584 347.178345,427.421600 349.600922,425.879761 
	C355.640137,422.036285 361.848969,418.453918 368.056488,414.882812 
	C370.499359,413.477448 371.567810,411.874298 371.054901,408.839996 
	C369.946655,402.283661 369.434387,395.627106 368.346588,389.066528 
	C367.858154,386.120667 368.517120,383.900421 370.445923,381.769714 
	C375.141815,376.582489 379.819427,371.375977 384.381714,366.071686 
	C386.511017,363.596008 388.940216,362.461670 392.246063,362.715851 
	C398.717255,363.213348 405.208435,363.445160 411.685852,363.870789 
	C414.411530,364.049835 416.528687,363.405914 417.941772,360.817017 
	C421.293121,354.677185 424.681152,348.553497 428.234924,342.529816 
	C429.889709,339.724884 429.307159,337.767334 427.136292,335.531006 
	C422.614166,330.872559 418.423615,325.893616 413.942261,321.193726 
	C411.511993,318.644897 410.804749,316.260223 412.094910,312.706879 
	C414.134277,307.089966 415.380829,301.188141 417.038971,295.428802 
	C418.055237,291.898926 428.078033,289.452240 430.547943,292.125305 
	C431.711273,293.384277 431.255615,294.988556 430.933411,296.415009 
	C429.942902,300.800415 428.981384,305.201721 427.729095,309.515686 
	C426.729218,312.960052 427.548645,315.584656 430.015533,318.112579 
	C434.084808,322.282471 437.926453,326.674042 441.879944,330.957489 
	C445.999451,335.420746 446.424316,338.780548 443.497711,344.062683 
	C438.493591,353.094360 433.407410,362.081909 428.516785,371.174683 
	C425.795593,376.234039 422.049469,378.938599 416.063934,378.354645 
	C410.437103,377.805634 404.761414,377.767365 399.129364,377.258881 
	C395.436707,376.925507 393.115692,378.729614 390.370300,380.918823 
	C383.502289,386.395599 381.785339,392.877228 384.320709,401.075836 
	C385.392761,404.542511 385.556122,408.282043 386.261566,411.872192 
	C387.227997,416.790558 385.189484,420.406952 381.258301,422.946442 
	C371.744934,429.091919 362.070343,434.987854 352.561005,441.139404 
	C348.147522,443.994446 344.121796,443.531921 340.069244,440.605774 
	C337.099457,438.461395 333.860413,436.616150 331.181580,434.157837 
	C325.376282,428.830475 319.437592,428.048004 312.262268,431.541077 
	C308.472046,433.386230 305.412598,435.056122 304.025787,439.332184 
	C302.384857,444.391907 300.132141,449.249786 298.286194,454.247437 
	C296.509949,459.056274 293.273376,461.399597 288.062866,461.340454 
	C277.233704,461.217529 266.401337,461.189697 255.572495,461.313873 
	C250.769104,461.368896 247.652664,459.287964 245.878098,454.962219 
	C243.666092,449.570160 241.237091,444.250092 239.366119,438.741241 
	C238.169830,435.218811 235.910782,433.747772 232.709793,432.146423 
	C224.665405,428.122009 218.377396,429.245453 211.039383,434.743439 
	C196.210541,445.853912 198.091766,445.435547 181.921982,435.248688 
	C175.580048,431.253296 169.215912,427.291626 162.812241,423.396240 
	C158.311249,420.658264 156.425842,417.035004 157.612839,411.651184 
	C158.865158,405.971100 159.514648,400.160706 160.567337,394.432922 
	C161.161575,391.199677 160.602554,388.517090 157.899460,386.424194 
	C156.983582,385.715057 155.970001,384.950806 155.423172,383.975189 
	C151.346252,376.701324 144.768265,376.460114 137.696289,377.499878 
	C136.707520,377.645233 135.728607,377.906219 134.735962,377.969147 
	C118.589134,378.992767 118.750587,378.855316 112.534744,366.785736 
	C108.570328,359.087799 104.220993,351.588867 100.097603,343.971802 
	C97.177216,338.577026 97.566811,335.510101 101.686470,330.818085 
	C105.421326,326.564392 109.140648,322.294373 112.980598,318.136627 
	C115.096199,315.845978 115.747070,313.525513 114.801720,310.430267 
	C113.344559,305.659241 112.341187,300.751129 111.083984,295.917084 
	C110.245705,292.693878 111.460556,291.365692 114.741974,291.089844 
	C123.511215,290.352692 124.435287,291.016541 126.378265,299.814301 
	C127.347069,304.201141 128.350784,308.602142 129.732620,312.869141 
	C130.906387,316.493652 130.094452,319.356567 127.677895,322.054382 
	C123.900299,326.271729 120.202972,330.561157 116.411209,334.765533 
	C114.104446,337.323303 113.839043,339.861847 115.576263,342.927704 
	C118.942001,348.867615 122.135597,354.908844 125.254082,360.983276 
	C126.603569,363.611938 128.424469,364.317474 131.324432,364.018250 
	C137.941681,363.335419 144.601242,363.072937 151.236267,362.546936 
	C153.744965,362.348053 155.789230,362.980347 157.497635,364.886993 
	C162.832504,370.840790 168.186371,376.778290 173.596802,382.663361 
	C175.560959,384.799835 176.176590,387.031891 175.592163,389.964386 
	C174.356827,396.162842 173.486160,402.433960 172.403839,409.074280 
M272.246765,163.519363 
	C266.840515,164.501526 263.986633,167.754929 264.771881,172.040710 
	C265.467804,175.839020 268.961121,178.381134 272.818878,177.777298 
	C275.919281,177.291992 278.047668,175.434387 278.592529,172.380722 
	C279.395111,167.882980 277.039215,165.153793 272.246765,163.519363 
z"/>
<path fill="#000000" opacity="1.000000" stroke="none" 
	d="
M146.768982,328.938477 
	C146.771164,312.620422 146.633560,296.789520 146.862854,280.963928 
	C146.928619,276.424408 145.489395,274.796661 140.909531,274.821228 
	C128.425598,274.888306 115.937157,274.669586 103.456039,274.348785 
	C99.930740,274.258148 97.803452,275.286011 95.772240,278.402374 
	C89.095131,288.646759 75.937424,290.857574 66.523788,283.735809 
	C57.662041,277.031494 56.082672,263.687592 63.084167,254.674225 
	C71.441101,243.915924 88.819672,244.664154 95.883247,256.406647 
	C97.768745,259.541138 99.694931,260.223267 102.995819,260.183258 
	C115.803314,260.028015 128.615326,260.073883 141.423325,260.232208 
	C145.549744,260.283234 146.855743,258.641144 146.809937,254.581665 
	C146.633209,238.921463 146.851059,223.256805 146.673401,207.596619 
	C146.630783,203.839005 147.854568,201.478836 150.955246,199.354202 
	C180.087677,179.392166 208.886658,158.938675 238.748703,140.057587 
	C240.248016,139.109589 241.780960,137.316345 243.648727,138.231857 
	C245.845306,139.308517 245.034882,141.768906 245.035248,143.669464 
	C245.051727,228.812027 245.036484,313.954590 244.989883,399.097137 
	C244.988647,401.346741 245.582230,403.778320 243.467178,406.214294 
	C238.857819,404.626526 234.817719,401.734711 230.672440,399.096558 
	C228.987595,398.024323 229.577637,396.118011 229.579376,394.485657 
	C229.619324,356.829803 229.581009,319.173523 229.789612,281.518616 
	C229.816986,276.574005 228.459930,274.826538 223.320587,274.897919 
	C204.829620,275.154633 186.331085,275.101227 167.838928,274.875854 
	C163.119354,274.818359 161.885071,276.591095 161.918808,281.038452 
	C162.069138,300.862000 161.942688,320.687714 161.896057,340.512573 
	C161.891068,342.633514 162.203384,344.835632 160.959351,346.738251 
	C151.841003,345.385925 146.730316,339.081451 146.768982,328.938477 
M192.989761,188.533188 
	C183.953629,194.784668 174.904221,201.017075 165.890060,207.300079 
	C163.410919,209.028076 161.104294,210.808548 161.393143,214.465973 
	C162.443344,227.763397 161.887573,241.093689 161.876312,254.408005 
	C161.872604,258.799225 163.514145,260.105652 167.753357,260.192261 
	C186.396866,260.573212 205.029907,260.687378 223.676575,260.209747 
	C228.533615,260.085327 229.862305,258.494507 229.830780,253.797577 
	C229.641907,225.656815 229.733536,197.514191 229.695694,169.372253 
	C229.693787,167.943634 230.162704,166.365067 228.347702,164.486206 
	C216.832733,172.328506 205.216904,180.239502 192.989761,188.533188 
M74.019646,272.521637 
	C76.823326,275.141602 79.840866,275.582581 82.978378,273.207001 
	C86.193748,270.772491 86.784279,266.249207 84.299255,263.007629 
	C81.778473,259.719421 78.510811,259.284637 75.043816,261.249756 
	C71.354233,263.341064 70.890793,267.236755 74.019646,272.521637 
z"/>
<path fill="#000000" opacity="1.000000" stroke="none" 
	d="
M205.240723,347.013367 
	C205.241638,358.472748 205.241638,369.435181 205.241638,380.406036 
	C197.266357,380.208435 190.627823,373.676392 190.662445,366.738220 
	C190.709000,357.407806 190.510529,348.071747 190.784119,338.748901 
	C190.900055,334.797791 189.479462,332.359650 186.375610,330.032257 
	C177.520905,323.392609 175.493668,311.790710 181.276733,302.900208 
	C187.103104,293.943146 198.398499,291.215363 208.144318,296.411804 
	C220.099487,302.786224 222.502762,320.933044 211.446808,328.856415 
	C205.524460,333.100769 204.842728,337.590851 205.229401,343.517792 
	C205.294342,344.513336 205.239365,345.516693 205.240723,347.013367 
M191.188232,315.162445 
	C193.125778,320.377838 196.317490,322.349792 200.364990,320.723633 
	C204.169952,319.194916 205.430908,316.154053 204.824890,312.320160 
	C204.207535,308.414459 201.353668,306.468231 197.806610,306.707458 
	C193.475845,306.999542 191.051483,309.818665 191.188232,315.162445 
z"/>
</svg>
